<?xml version="1.0" encoding="utf-8"?>
<!-- Generator: Adobe Illustrator 16.0.1, SVG Export Plug-In . SVG Version: 6.00 Build 0)  -->
<!DOCTYPE svg PUBLIC "-//W3C//DTD SVG 1.1//EN" "http://www.w3.org/Graphics/SVG/1.1/DTD/svg11.dtd">
<svg version="1.1" xmlns="http://www.w3.org/2000/svg" xmlns:xlink="http://www.w3.org/1999/xlink" x="0px" y="0px" width="78.52px"
	 height="78.52px" viewBox="0 0 78.52 78.52" enable-background="new 0 0 78.52 78.52" xml:space="preserve">
<g id="Layer_1" display="none">
</g>
<g id="Layer_3">
	<g>
		<g>
			<path fill="#8C8C8C" d="M39.262,26.757c-6.891,0-12.504,5.613-12.504,12.504s5.613,12.504,12.504,12.504
				s12.504-5.613,12.504-12.504S46.152,26.757,39.262,26.757z M71.354,37.243L59.02,31.081l4.363-13.077
				c0.586-1.771-1.094-3.451-2.854-2.854l-13.074,4.365L41.281,7.168c-0.834-1.668-3.205-1.668-4.039,0l-6.16,12.334l-13.09-4.363
				c-1.771-0.586-3.451,1.094-2.852,2.852l4.363,13.079L7.17,37.243c-1.668,0.832-1.668,3.203,0,4.035l12.334,6.162l-4.363,13.09
				c-0.586,1.77,1.094,3.451,2.852,2.852l13.076-4.363l6.162,12.334c0.834,1.668,3.203,1.668,4.037,0l6.16-12.334l13.076,4.363
				c1.771,0.586,3.451-1.094,2.854-2.852l-4.365-13.078l12.334-6.16C73.021,40.446,73.021,38.075,71.354,37.243L71.354,37.243z
				 M51.049,51.048c-6.5,6.498-17.076,6.498-23.574,0c-6.5-6.5-6.5-17.074,0-23.574c6.498-6.499,17.074-6.499,23.574,0
				C57.547,33.974,57.547,44.548,51.049,51.048z"/>
		</g>
	</g>
</g>
<g id="Layer_2">
</g>
<g id="Layer_5">
</g>
<g id="Layer_4" display="none">
</g>
</svg>
